<svg width="48" height="48" viewBox="0 0 48 48" fill="none" xmlns="http://www.w3.org/2000/svg">
<path d="M24 40C28.2435 40 32.3131 38.3143 35.3137 35.3137C38.3143 32.3131 40 28.2435 40 24C40 19.7565 38.3143 15.6869 35.3137 12.6863C32.3131 9.68571 28.2435 8 24 8C19.7565 8 15.6869 9.68571 12.6863 12.6863C9.68571 15.6869 8 19.7565 8 24C8 28.2435 9.68571 32.3131 12.6863 35.3137C15.6869 38.3143 19.7565 40 24 40ZM24 4C26.6264 4 29.2272 4.51732 31.6537 5.52241C34.0802 6.5275 36.285 8.00069 38.1421 9.85786C39.9993 11.715 41.4725 13.9198 42.4776 16.3463C43.4827 18.7728 44 21.3736 44 24C44 29.3043 41.8929 34.3914 38.1421 38.1421C34.3914 41.8929 29.3043 44 24 44C12.94 44 4 35 4 24C4 18.6957 6.10714 13.6086 9.85786 9.85786C13.6086 6.10714 18.6957 4 24 4ZM25 14V24.5L34 29.84L32.5 32.3L22 26V14H25Z" fill="url(#paint0_linear_50_511)"/>
<defs>
<linearGradient id="paint0_linear_50_511" x1="24" y1="44" x2="24" y2="4" gradientUnits="userSpaceOnUse">
<stop stop-color="#294E9A"/>
<stop offset="1" stop-color="#061940"/>
</linearGradient>
</defs>
</svg>
